<svg xmlns="http://www.w3.org/2000/svg" width="31.5" height="36" viewBox="0 0 31.5 36">
  <path id="Icon_awesome-percent" data-name="Icon awesome-percent" d="M7.875,15.75A7.875,7.875,0,1,0,0,7.875,7.871,7.871,0,0,0,7.875,15.75Zm0-11.25A3.375,3.375,0,1,1,4.5,7.875,3.376,3.376,0,0,1,7.875,4.5Zm15.75,15.75A7.875,7.875,0,1,0,31.5,28.125,7.871,7.871,0,0,0,23.625,20.25Zm0,11.25A3.375,3.375,0,1,1,27,28.125,3.376,3.376,0,0,1,23.625,31.5ZM27.584.014,29.805.007a1.687,1.687,0,0,1,1.385,2.658L5.442,35.269a1.684,1.684,0,0,1-1.378.717l-2.348.007A1.688,1.688,0,0,1,.33,33.335L26.205.731A1.684,1.684,0,0,1,27.584.014Z" fill="#fff"/>
</svg>
